<svg xmlns="http://www.w3.org/2000/svg" width="200" height="200"><path d="M10 100v25h180V75H10v25m5-.5V121h96V78H15v21.5m115.667-9.833c-1.809 1.808-.455 3.333 2.961 3.333h3.628l-.681 4.25c-2.059 12.862-2.065 12.75.643 12.75 2.337 0 2.577-.506 3.909-8.25l1.419-8.25 3.468-.331c3.181-.304 4.932-1.508 4.971-3.419.019-.927-19.395-1.007-20.318-.083m22.89.583c-.208.688-.886 4.175-1.506 7.75s-1.37 7.737-1.668 9.25c-.478 2.425-.239 2.75 2.018 2.75 1.981 0 2.697-.623 3.163-2.75 1.069-4.875 1.336-5.25 3.738-5.25 3.246 0 3.584.573 2.687 4.55-.74 3.279-.643 3.45 1.942 3.45 2.659 0 2.759-.22 4.411-9.75 2.085-12.03 2.139-11.25-.783-11.25-2.074 0-2.567.639-3.276 4.25-.726 3.694-1.21 4.293-3.698 4.58-2.844.328-2.86.3-2.347-4.25.486-4.315.377-4.58-1.892-4.58-1.325 0-2.58.563-2.789 1.25M24.172 92.979c1.469.443 3.269 1.113 4 1.488.73.375.454-.027-.613-.893-1.068-.866-2.868-1.535-4-1.488-1.652.069-1.531.245.613.893m10.051.578c-1.223.856-2.193 2.318-2.155 3.25.051 1.282.332 1.144 1.158-.569.6-1.245 2.482-2.667 4.182-3.16 2.107-.612 2.446-.926 1.065-.988-1.116-.049-3.028.611-4.25 1.467m13.976 3.467c1.148 2.763 2.259 4.851 2.469 4.641.47-.47-3.409-9.665-4.077-9.665-.264 0 .459 2.261 1.608 5.024m7.934.109c-1.184 2.85-1.988 5.346-1.786 5.547.202.202 1.336-1.964 2.52-4.813 1.184-2.85 1.988-5.346 1.786-5.547-.202-.202-1.336 1.964-2.52 4.813m6.21 2.367c.003 4.4.179 6.076.39 3.724.212-2.352.209-5.952-.006-8s-.388-.124-.384 4.276m4.657 0v7.5l3.25-.15c3.025-.139 3.06-.179.5-.566-2.669-.405-2.75-.605-2.75-6.787v-6.37l3.25-.404c3.2-.397 3.192-.405-.5-.563L67 92v7.5m-48.443-4.277C17.701 96.445 17 98.49 17 99.768c0 2.77 4.174 7.248 6.705 7.193 1.096-.024.544-.583-1.42-1.437-4.058-1.765-5.278-5.73-2.989-9.718 1.922-3.348 1.455-3.717-.739-.583m24.086.333c2.334 4.269 1.186 8.179-2.928 9.968-1.964.854-2.516 1.413-1.42 1.437 2.576.056 6.705-4.443 6.705-7.305 0-1.339-.906-3.497-2.014-4.795L40.971 92.5l1.672 3.056m33.777-.583c2.139 3.347 1.987 6.62-.42 9.027-1.1 1.1-1.576 2-1.057 2 1.473 0 4.057-4.211 4.057-6.612 0-1.191-.936-3.229-2.08-4.527L74.84 92.5l1.58 2.473m15.08 1.48c-1.604 1.245-1.654 1.431-.25.942 1.499-.522 1.75.041 1.75 3.925 0 3.477-.408 4.64-1.75 4.991-.963.251.05.457 2.25.457s3.234-.202 2.298-.448c-1.291-.34-1.774-1.772-2-5.933-.289-5.321-.358-5.439-2.298-3.934m9.25-.373c-2.425 1.412-2.305 6.553.184 7.885 1.064.569 2.527 1.028 3.25 1.02.724-.008.191-.581-1.184-1.273-1.554-.782-2.618-2.277-2.813-3.95-.254-2.181.176-2.815 2.263-3.339 1.57-.394 3.254-.115 4.313.715 1.571 1.232 1.606 1.195.365-.388-1.536-1.958-3.764-2.192-6.378-.67m6.594 5.429c-.637 1.371-.788 2.265-.336 1.986.452-.279 1.049.058 1.328.749.278.691.542-.207.585-1.994.095-3.898-.076-3.979-1.577-.741M32 101.698c0 1.339 2.749 4.887 3.332 4.3.273-.274-.365-1.56-1.418-2.859-1.053-1.298-1.914-1.947-1.914-1.441m-4.789 2.903c-.71.769-.849 1.399-.309 1.399 1.038 0 2.541-1.902 1.948-2.466-.192-.183-.93.297-1.639 1.067m24.453.231c.185.732.336 1.546.336 1.809 0 .262.45.199 1-.141.55-.34 1-1.068 1-1.618s-.412-.746-.915-.435c-.503.311-1.104.225-1.336-.191-.232-.416-.27-.157-.085.576m54.9 2.875c-.542 1.425-.428 1.54.56.56.684-.679.991-1.486.683-1.793-.308-.308-.867.247-1.243 1.233m-3.751 1.976c.721.289 1.584.253 1.916-.079.332-.332-.258-.568-1.312-.525-1.165.048-1.402.285-.604.604" fill="undefined" fill-rule="evenodd"/></svg>